<svg id="svg" xmlns="http://www.w3.org/2000/svg" xmlns:xlink="http://www.w3.org/1999/xlink" width="400" height="400" viewBox="0, 0, 400,400"><g id="svgg"><path id="path0" d="M188.191 56.111 C 173.677 75.637,171.111 82.677,171.111 102.973 L 171.111 122.222 142.623 122.222 L 114.135 122.222 110.957 115.167 C 104.636 101.141,94.347 101.129,90.109 115.143 L 87.995 122.131 44.553 122.732 L 1.111 123.333 0.476 143.620 C -0.005 158.965,0.564 164.186,2.813 165.048 C 4.447 165.675,43.233 171.927,89.003 178.942 C 134.774 185.956,172.495 191.919,172.829 192.194 C 173.162 192.469,175.901 212.588,178.915 236.903 C 181.929 261.217,184.945 285.212,185.617 290.224 L 186.840 299.337 165.520 300.609 C 140.536 302.099,137.778 303.737,137.778 317.085 C 137.778 333.225,140.132 335.556,156.435 335.556 C 181.415 335.556,190.592 337.629,192.094 343.612 C 193.753 350.222,202.222 351.028,202.222 344.576 C 202.222 338.240,204.528 337.538,230.655 335.919 L 254.444 334.444 255.115 320.226 C 255.963 302.220,255.875 302.150,230.283 300.623 C 212.600 299.568,208.908 298.729,209.001 295.785 C 209.264 287.470,221.410 193.414,222.327 192.594 C 222.881 192.099,260.782 185.956,306.552 178.942 C 352.322 171.927,391.108 165.675,392.743 165.048 C 394.991 164.186,395.560 158.965,395.080 143.620 L 394.444 123.333 350.556 122.731 C 313.109 122.217,306.667 121.634,306.667 118.764 C 306.667 103.988,291.278 100.057,285.183 113.276 L 281.111 122.108 252.778 122.165 L 224.444 122.222 224.444 103.284 C 224.444 64.763,202.746 36.530,188.191 56.111 " stroke="none" fill="#000000" fill-rule="evenodd"></path></g></svg>