<svg id="svg" xmlns="http://www.w3.org/2000/svg" xmlns:xlink="http://www.w3.org/1999/xlink" width="400" height="400" viewBox="0, 0, 400,400"><g id="svgg"><path id="path0" d="M64.889 4.889 C 60.049 9.729,61.811 11.846,114.444 64.444 L 166.667 116.631 166.667 137.778 L 166.667 158.924 114.384 211.129 C 60.770 264.664,55.954 271.179,68.670 272.976 C 73.057 273.596,82.026 265.719,119.047 228.731 L 164.087 183.731 167.288 191.310 C 169.048 195.478,172.990 201.389,176.047 204.444 C 185.783 214.176,188.889 222.958,188.889 240.753 L 188.889 257.283 181.667 258.514 C 177.694 259.190,166.694 260.939,157.222 262.399 C 140.444 264.986,140.000 265.216,140.000 271.315 C 140.000 278.263,138.958 277.885,172.222 283.000 L 190.000 285.733 191.396 324.533 C 192.164 345.873,192.914 371.083,193.063 380.556 C 193.323 397.137,193.530 397.778,198.622 397.778 L 203.910 397.778 205.844 341.755 L 207.778 285.732 225.556 282.999 C 258.817 277.886,257.778 278.263,257.778 271.315 C 257.778 265.216,257.334 264.986,240.556 262.399 C 231.083 260.939,220.083 259.190,216.111 258.514 L 208.889 257.283 208.889 240.718 C 208.889 222.586,209.959 219.693,222.573 203.736 C 227.613 197.360,231.111 190.520,231.111 187.043 C 231.111 181.960,237.476 187.510,277.441 227.441 C 315.556 265.523,324.716 273.597,329.107 272.977 C 341.824 271.179,337.009 264.664,283.394 211.129 L 231.111 158.924 231.111 137.778 L 231.111 116.631 283.333 64.444 C 334.866 12.947,340.112 6.190,330.844 3.249 C 327.054 2.046,323.032 4.792,310.288 17.285 C 236.819 89.309,232.289 93.295,231.023 87.039 C 227.484 69.549,218.251 45.264,213.004 39.647 C 201.485 27.317,180.433 34.753,176.637 52.493 C 175.884 56.011,173.247 64.389,170.775 71.111 C 168.304 77.833,165.722 85.741,165.038 88.683 C 163.916 93.501,159.350 89.462,119.118 48.064 C 75.739 3.427,70.512 -0.734,64.889 4.889 " stroke="none" fill="#000000" fill-rule="evenodd"></path></g></svg>