<svg id="svg" xmlns="http://www.w3.org/2000/svg" xmlns:xlink="http://www.w3.org/1999/xlink" width="400" height="400" viewBox="0, 0, 400,400"><g id="svgg"><path id="path0" d="M185.605 19.046 C 176.104 29.297,173.333 42.329,173.333 76.760 L 173.333 108.283 156.187 119.607 C 146.340 126.110,138.453 129.981,137.660 128.699 C 136.866 127.414,128.817 126.745,118.696 127.122 L 101.111 127.778 101.111 142.454 L 101.111 157.130 64.523 181.343 C 21.040 210.118,20.000 211.047,20.000 221.111 C 20.000 231.106,15.767 231.524,87.526 214.444 C 123.700 205.835,153.119 200.000,160.355 200.000 L 172.496 200.000 175.022 241.667 L 177.549 283.333 155.441 304.577 C 135.277 323.953,133.333 326.542,133.333 334.022 C 133.333 344.402,134.507 344.412,162.714 334.268 C 174.879 329.893,185.117 326.643,185.467 327.045 C 185.816 327.448,187.754 331.028,189.774 335.000 C 194.826 344.934,202.951 344.934,208.003 335.000 C 210.023 331.028,211.962 327.448,212.311 327.045 C 212.660 326.643,222.899 329.893,235.064 334.268 C 263.271 344.412,264.444 344.402,264.444 334.022 C 264.444 326.541,262.502 323.956,242.324 304.577 L 220.203 283.333 222.703 241.667 L 225.202 200.000 237.383 200.000 C 244.668 200.000,273.952 205.805,310.251 214.444 C 382.011 231.524,377.778 231.106,377.778 221.111 C 377.778 211.047,376.738 210.118,333.255 181.343 L 296.667 157.130 296.667 142.454 L 296.667 127.778 279.082 127.122 C 268.960 126.745,260.911 127.414,260.117 128.699 C 259.325 129.981,251.438 126.110,241.591 119.607 L 224.444 108.283 224.444 77.878 C 224.444 44.061,221.319 28.915,212.343 19.230 C 204.887 11.185,192.966 11.103,185.605 19.046 " stroke="none" fill="#000000" fill-rule="evenodd"></path></g></svg>