<svg id="svg" xmlns="http://www.w3.org/2000/svg" xmlns:xlink="http://www.w3.org/1999/xlink" width="400" height="382.9787234042553" viewBox="0, 0, 400,382.9787234042553"><g id="svgg"><path id="path0" d="M117.021 52.128 C 117.021 54.818,121.868 55.319,147.872 55.319 L 178.723 55.319 178.723 62.766 C 178.723 68.794,179.534 70.213,182.979 70.213 C 185.816 70.213,187.234 71.631,187.234 74.468 C 187.234 78.650,185.816 78.723,105.458 78.723 C 19.151 78.723,16.125 79.030,5.851 88.831 C 0.436 93.998,0.000 95.661,0.000 111.176 C 0.000 144.955,-0.768 144.681,94.009 144.681 L 169.430 144.681 173.117 169.348 C 177.340 197.601,190.957 253.907,193.823 254.965 C 202.107 258.021,190.666 259.574,159.861 259.574 C 119.435 259.574,114.907 261.054,110.897 275.577 C 104.492 298.777,117.544 306.383,163.761 306.383 L 195.745 306.383 195.745 311.702 C 195.745 315.603,196.879 317.021,200.000 317.021 C 203.089 317.021,204.255 315.603,204.255 311.845 L 204.255 306.669 239.214 305.994 C 283.226 305.144,295.334 297.773,289.121 275.611 C 285.046 261.078,280.470 259.574,240.307 259.574 C 206.087 259.574,201.723 258.881,206.144 254.149 C 210.030 249.990,225.389 183.353,228.801 155.851 L 230.187 144.681 305.624 144.681 C 400.561 144.681,400.000 144.878,400.000 111.600 C 400.000 79.425,397.730 78.723,293.685 78.723 C 214.184 78.723,212.766 78.649,212.766 74.468 C 212.766 71.631,214.184 70.213,217.021 70.213 C 220.466 70.213,221.277 68.794,221.277 62.766 L 221.277 55.319 252.128 55.319 C 278.132 55.319,282.979 54.818,282.979 52.128 C 282.979 49.345,272.340 48.936,200.000 48.936 C 127.660 48.936,117.021 49.345,117.021 52.128 " stroke="none" fill="#000000" fill-rule="evenodd"></path></g></svg>